<svg xmlns="http://www.w3.org/2000/svg" viewBox="0 0 260 260" role="img" aria-labelledby="title"><title id="title">The Vault seal</title><defs><linearGradient id="ring" x1="0" y1="0" x2="1" y2="1"><stop stop-color="#FFE8A6"/><stop offset=".48" stop-color="#D4AF37"/><stop offset="1" stop-color="#7B5E12"/></linearGradient></defs><circle cx="130" cy="130" r="120" fill="#0F0F0F" stroke="url(#ring)" stroke-width="8"/><circle cx="130" cy="130" r="94" fill="none" stroke="#3A3A3A" stroke-width="2" stroke-dasharray="8 10"/><path d="M82 118h96v66H82z" rx="12" fill="#171717" stroke="#D4AF37" stroke-width="6"/><path d="M102 118V95c0-18 12-35 31-35s31 17 31 35v23" fill="none" stroke="#D4AF37" stroke-width="12" stroke-linecap="round"/><circle cx="130" cy="150" r="10" fill="#FFE8C0"/><path d="M130 158v18" stroke="#FFE8C0" stroke-width="7" stroke-linecap="round"/><path d="M72 60 91 30l20 39" fill="#D4AF37"/><path d="M179 61c24 8 35 27 23 49-9 15-27 18-38 7 12-11 17-33 15-56Z" fill="#6B4E12" stroke="#D4AF37" stroke-width="4"/></svg>
